<?xml version="1.0" encoding="UTF-8"?>
<!DOCTYPE svg PUBLIC "-//W3C//DTD SVG 1.1//EN" "http://www.w3.org/Graphics/SVG/1.1/DTD/svg11.dtd">
<svg xmlns="http://www.w3.org/2000/svg" style="background-color: rgb(241, 250, 238);" xmlns:xlink="http://www.w3.org/1999/xlink" version="1.1" width="1400px" height="850px" viewBox="-0.5 -0.5 1400 850"><defs><clipPath id="mx-clip-50-50-30-30-0"><rect x="50" y="50" width="30" height="30"/></clipPath><clipPath id="mx-clip-86-50-144-30-0"><rect x="86" y="50" width="144" height="30"/></clipPath><clipPath id="mx-clip-86-80-144-30-0"><rect x="86" y="80" width="144" height="30"/></clipPath><clipPath id="mx-clip-86-110-144-30-0"><rect x="86" y="110" width="144" height="30"/></clipPath><clipPath id="mx-clip-86-140-144-30-0"><rect x="86" y="140" width="144" height="30"/></clipPath><clipPath id="mx-clip-420-50-60-30-0"><rect x="420" y="50" width="60" height="30"/></clipPath><clipPath id="mx-clip-486-50-114-30-0"><rect x="486" y="50" width="114" height="30"/></clipPath><clipPath id="mx-clip-420-80-60-30-0"><rect x="420" y="80" width="60" height="30"/></clipPath><clipPath id="mx-clip-486-80-114-30-0"><rect x="486" y="80" width="114" height="30"/></clipPath><clipPath id="mx-clip-486-110-114-30-0"><rect x="486" y="110" width="114" height="30"/></clipPath><clipPath id="mx-clip-550-360-30-30-0"><rect x="550" y="360" width="30" height="30"/></clipPath><clipPath id="mx-clip-586-360-144-30-0"><rect x="586" y="360" width="144" height="30"/></clipPath><clipPath id="mx-clip-586-390-144-30-0"><rect x="586" y="390" width="144" height="30"/></clipPath><clipPath id="mx-clip-586-420-144-30-0"><rect x="586" y="420" width="144" height="30"/></clipPath><clipPath id="mx-clip-586-450-144-30-0"><rect x="586" y="450" width="144" height="30"/></clipPath><clipPath id="mx-clip-790-80-30-30-0"><rect x="790" y="80" width="30" height="30"/></clipPath><clipPath id="mx-clip-826-80-144-30-0"><rect x="826" y="80" width="144" height="30"/></clipPath><clipPath id="mx-clip-790-110-30-30-0"><rect x="790" y="110" width="30" height="30"/></clipPath><clipPath id="mx-clip-826-110-144-30-0"><rect x="826" y="110" width="144" height="30"/></clipPath><clipPath id="mx-clip-826-140-144-30-0"><rect x="826" y="140" width="144" height="30"/></clipPath><clipPath id="mx-clip-826-170-144-30-0"><rect x="826" y="170" width="144" height="30"/></clipPath><clipPath id="mx-clip-826-200-144-30-0"><rect x="826" y="200" width="144" height="30"/></clipPath><clipPath id="mx-clip-110-360-60-30-0"><rect x="110" y="360" width="60" height="30"/></clipPath><clipPath id="mx-clip-176-360-124-30-0"><rect x="176" y="360" width="124" height="30"/></clipPath><clipPath id="mx-clip-110-390-60-30-0"><rect x="110" y="390" width="60" height="30"/></clipPath><clipPath id="mx-clip-176-390-124-30-0"><rect x="176" y="390" width="124" height="30"/></clipPath></defs><g><path d="M 50 50 L 50 20 L 230 20 L 230 50" fill="#a8dadc" stroke="#457b9d" stroke-miterlimit="10" pointer-events="all"/><path d="M 50 50 L 50 180 L 230 180 L 230 50" fill="none" stroke="#457b9d" stroke-miterlimit="10" pointer-events="none"/><path d="M 50 50 L 230 50" fill="none" stroke="#457b9d" stroke-miterlimit="10" pointer-events="none"/><path d="M 80 50 L 80 180" fill="none" stroke="#457b9d" stroke-miterlimit="10" pointer-events="none"/><g fill="#1D3557" font-family="Helvetica" font-weight="bold" pointer-events="none" text-anchor="middle" font-size="17px"><text x="139.5" y="42">SVIEN</text></g><path d="M 50 50 M 230 50 M 230 80 L 50 80" fill="none" stroke="#457b9d" stroke-miterlimit="10" pointer-events="none"/><path d="M 50 50 M 80 50 M 80 80 M 50 80" fill="none" stroke="#457b9d" stroke-miterlimit="10" pointer-events="none"/><g fill="#1D3557" font-family="Helvetica" font-weight="bold" pointer-events="none" clip-path="url(#mx-clip-50-50-30-30-0)" text-anchor="middle" font-size="17px"><text x="64.5" y="72">PK</text></g><path d="M 80 50 M 230 50 M 230 80 M 80 80" fill="none" stroke="#457b9d" stroke-miterlimit="10" pointer-events="none"/><g fill="#1D3557" font-family="Helvetica" font-weight="bold" text-decoration="underline" pointer-events="none" clip-path="url(#mx-clip-86-50-144-30-0)" font-size="17px"><text x="87.5" y="72">masv</text></g><path d="M 50 80 M 230 80 M 230 110 M 50 110" fill="none" stroke="#457b9d" stroke-miterlimit="10" pointer-events="none"/><path d="M 50 80 M 80 80 M 80 110 M 50 110" fill="none" stroke="#457b9d" stroke-miterlimit="10" pointer-events="none"/><path d="M 80 80 M 230 80 M 230 110 M 80 110" fill="none" stroke="#457b9d" stroke-miterlimit="10" pointer-events="none"/><g fill="#1D3557" font-family="Helvetica" font-weight="bold" pointer-events="none" clip-path="url(#mx-clip-86-80-144-30-0)" font-size="17px"><text x="87.5" y="102">ten</text></g><path d="M 50 110 M 230 110 M 230 140 M 50 140" fill="none" stroke="#457b9d" stroke-miterlimit="10" pointer-events="none"/><path d="M 50 110 M 80 110 M 80 140 M 50 140" fill="none" stroke="#457b9d" stroke-miterlimit="10" pointer-events="none"/><path d="M 80 110 M 230 110 M 230 140 M 80 140" fill="none" stroke="#457b9d" stroke-miterlimit="10" pointer-events="none"/><g fill="#1D3557" font-family="Helvetica" font-weight="bold" pointer-events="none" clip-path="url(#mx-clip-86-110-144-30-0)" font-size="17px"><text x="87.5" y="132">nam</text></g><path d="M 50 140 M 230 140 M 230 170 M 50 170" fill="none" stroke="#457b9d" stroke-miterlimit="10" pointer-events="none"/><path d="M 50 140 M 80 140 M 80 170 M 50 170" fill="none" stroke="#457b9d" stroke-miterlimit="10" pointer-events="none"/><path d="M 80 140 M 230 140 M 230 170 M 80 170" fill="none" stroke="#457b9d" stroke-miterlimit="10" pointer-events="none"/><g fill="#1D3557" font-family="Helvetica" font-weight="bold" pointer-events="none" clip-path="url(#mx-clip-86-140-144-30-0)" font-size="17px"><text x="87.5" y="162">khoa</text></g><path d="M 420 50 L 420 20 L 600 20 L 600 50" fill="#a8dadc" stroke="#457b9d" stroke-miterlimit="10" pointer-events="none"/><path d="M 420 50 L 420 140 L 600 140 L 600 50" fill="none" stroke="#457b9d" stroke-miterlimit="10" pointer-events="none"/><path d="M 420 50 L 600 50" fill="none" stroke="#457b9d" stroke-miterlimit="10" pointer-events="none"/><path d="M 480 50 L 480 140" fill="none" stroke="#457b9d" stroke-miterlimit="10" pointer-events="none"/><g fill="#1D3557" font-family="Helvetica" font-weight="bold" pointer-events="none" text-anchor="middle" font-size="17px"><text x="509.5" y="42">KQUA</text></g><path d="M 420 50 M 600 50 M 600 80 M 420 80" fill="none" stroke="#457b9d" stroke-miterlimit="10" pointer-events="none"/><path d="M 420 50 M 480 50 M 480 80 M 420 80" fill="none" stroke="#457b9d" stroke-miterlimit="10" pointer-events="none"/><g fill="#1D3557" font-family="Helvetica" font-weight="bold" pointer-events="none" clip-path="url(#mx-clip-420-50-60-30-0)" text-anchor="middle" font-size="17px"><text x="449.5" y="72">PK,FK1</text></g><path d="M 480 50 M 600 50 M 600 80 M 480 80" fill="none" stroke="#457b9d" stroke-miterlimit="10" pointer-events="none"/><g fill="#1D3557" font-family="Helvetica" font-weight="bold" text-decoration="underline" pointer-events="none" clip-path="url(#mx-clip-486-50-114-30-0)" font-size="17px"><text x="487.5" y="72">masv</text></g><path d="M 420 80 M 600 80 M 600 110 L 420 110" fill="none" stroke="#457b9d" stroke-miterlimit="10" pointer-events="none"/><path d="M 420 80 M 480 80 M 480 110 M 420 110" fill="none" stroke="#457b9d" stroke-miterlimit="10" pointer-events="none"/><g fill="#1D3557" font-family="Helvetica" font-weight="bold" pointer-events="none" clip-path="url(#mx-clip-420-80-60-30-0)" text-anchor="middle" font-size="17px"><text x="449.5" y="102">PK,FK2</text></g><path d="M 480 80 M 600 80 M 600 110 M 480 110" fill="none" stroke="#457b9d" stroke-miterlimit="10" pointer-events="none"/><g fill="#1D3557" font-family="Helvetica" font-weight="bold" text-decoration="underline" pointer-events="none" clip-path="url(#mx-clip-486-80-114-30-0)" font-size="17px"><text x="487.5" y="102">makh</text></g><path d="M 420 110 M 600 110 M 600 140 M 420 140" fill="none" stroke="#457b9d" stroke-miterlimit="10" pointer-events="none"/><path d="M 420 110 M 480 110 M 480 140 M 420 140" fill="none" stroke="#457b9d" stroke-miterlimit="10" pointer-events="none"/><path d="M 480 110 M 600 110 M 600 140 M 480 140" fill="none" stroke="#457b9d" stroke-miterlimit="10" pointer-events="none"/><g fill="#1D3557" font-family="Helvetica" font-weight="bold" pointer-events="none" clip-path="url(#mx-clip-486-110-114-30-0)" font-size="17px"><text x="487.5" y="132">diem</text></g><path d="M 550 360 L 550 330 L 730 330 L 730 360" fill="#a8dadc" stroke="#457b9d" stroke-miterlimit="10" pointer-events="none"/><path d="M 550 360 L 550 490 L 730 490 L 730 360" fill="none" stroke="#457b9d" stroke-miterlimit="10" pointer-events="none"/><path d="M 550 360 L 730 360" fill="none" stroke="#457b9d" stroke-miterlimit="10" pointer-events="none"/><path d="M 580 360 L 580 490" fill="none" stroke="#457b9d" stroke-miterlimit="10" pointer-events="none"/><g fill="#1D3557" font-family="Helvetica" font-weight="bold" pointer-events="none" text-anchor="middle" font-size="17px"><text x="639.5" y="352">MHOC</text></g><path d="M 550 360 M 730 360 M 730 390 L 550 390" fill="none" stroke="#457b9d" stroke-miterlimit="10" pointer-events="none"/><path d="M 550 360 M 580 360 M 580 390 M 550 390" fill="none" stroke="#457b9d" stroke-miterlimit="10" pointer-events="none"/><g fill="#1D3557" font-family="Helvetica" font-weight="bold" pointer-events="none" clip-path="url(#mx-clip-550-360-30-30-0)" text-anchor="middle" font-size="17px"><text x="564.5" y="382">PK</text></g><path d="M 580 360 M 730 360 M 730 390 M 580 390" fill="none" stroke="#457b9d" stroke-miterlimit="10" pointer-events="none"/><g fill="#1D3557" font-family="Helvetica" font-weight="bold" text-decoration="underline" pointer-events="none" clip-path="url(#mx-clip-586-360-144-30-0)" font-size="17px"><text x="587.5" y="382">mamh</text></g><path d="M 550 390 M 730 390 M 730 420 M 550 420" fill="none" stroke="#457b9d" stroke-miterlimit="10" pointer-events="none"/><path d="M 550 390 M 580 390 M 580 420 M 550 420" fill="none" stroke="#457b9d" stroke-miterlimit="10" pointer-events="none"/><path d="M 580 390 M 730 390 M 730 420 M 580 420" fill="none" stroke="#457b9d" stroke-miterlimit="10" pointer-events="none"/><g fill="#1D3557" font-family="Helvetica" font-weight="bold" pointer-events="none" clip-path="url(#mx-clip-586-390-144-30-0)" font-size="17px"><text x="587.5" y="412">ten_mh</text></g><path d="M 550 420 M 730 420 M 730 450 M 550 450" fill="none" stroke="#457b9d" stroke-miterlimit="10" pointer-events="none"/><path d="M 550 420 M 580 420 M 580 450 M 550 450" fill="none" stroke="#457b9d" stroke-miterlimit="10" pointer-events="none"/><path d="M 580 420 M 730 420 M 730 450 M 580 450" fill="none" stroke="#457b9d" stroke-miterlimit="10" pointer-events="none"/><g fill="#1D3557" font-family="Helvetica" font-weight="bold" pointer-events="none" clip-path="url(#mx-clip-586-420-144-30-0)" font-size="17px"><text x="587.5" y="442">tinchi</text></g><path d="M 550 450 M 730 450 M 730 480 M 550 480" fill="none" stroke="#457b9d" stroke-miterlimit="10" pointer-events="none"/><path d="M 550 450 M 580 450 M 580 480 M 550 480" fill="none" stroke="#457b9d" stroke-miterlimit="10" pointer-events="none"/><path d="M 580 450 M 730 450 M 730 480 M 580 480" fill="none" stroke="#457b9d" stroke-miterlimit="10" pointer-events="none"/><g fill="#1D3557" font-family="Helvetica" font-weight="bold" pointer-events="none" clip-path="url(#mx-clip-586-450-144-30-0)" font-size="17px"><text x="587.5" y="472">khoa</text></g><path d="M 790 80 L 790 50 L 970 50 L 970 80" fill="#a8dadc" stroke="#457b9d" stroke-miterlimit="10" pointer-events="none"/><path d="M 790 80 L 790 240 L 970 240 L 970 80" fill="none" stroke="#457b9d" stroke-miterlimit="10" pointer-events="none"/><path d="M 790 80 L 970 80" fill="none" stroke="#457b9d" stroke-miterlimit="10" pointer-events="none"/><path d="M 820 80 L 820 240" fill="none" stroke="#457b9d" stroke-miterlimit="10" pointer-events="none"/><g fill="#1D3557" font-family="Helvetica" font-weight="bold" pointer-events="none" text-anchor="middle" font-size="17px"><text x="879.5" y="72">K_HOC</text></g><path d="M 790 80 M 970 80 M 970 110 L 790 110" fill="none" stroke="#457b9d" stroke-miterlimit="10" pointer-events="none"/><path d="M 790 80 M 820 80 M 820 110 M 790 110" fill="none" stroke="#457b9d" stroke-miterlimit="10" pointer-events="none"/><g fill="#1D3557" font-family="Helvetica" font-weight="bold" pointer-events="none" clip-path="url(#mx-clip-790-80-30-30-0)" text-anchor="middle" font-size="17px"><text x="804.5" y="102">PK</text></g><path d="M 820 80 M 970 80 M 970 110 M 820 110" fill="none" stroke="#457b9d" stroke-miterlimit="10" pointer-events="none"/><g fill="#1D3557" font-family="Helvetica" font-weight="bold" text-decoration="underline" pointer-events="none" clip-path="url(#mx-clip-826-80-144-30-0)" font-size="17px"><text x="827.5" y="102">makh</text></g><path d="M 790 110 M 970 110 M 970 140 M 790 140" fill="none" stroke="#457b9d" stroke-miterlimit="10" pointer-events="none"/><path d="M 790 110 M 820 110 M 820 140 M 790 140" fill="none" stroke="#457b9d" stroke-miterlimit="10" pointer-events="none"/><g fill="#1D3557" font-family="Helvetica" font-weight="bold" pointer-events="none" clip-path="url(#mx-clip-790-110-30-30-0)" text-anchor="middle" font-size="17px"><text x="804.5" y="132">FK</text></g><path d="M 820 110 M 970 110 M 970 140 M 820 140" fill="none" stroke="#457b9d" stroke-miterlimit="10" pointer-events="none"/><g fill="#1D3557" font-family="Helvetica" font-weight="bold" pointer-events="none" clip-path="url(#mx-clip-826-110-144-30-0)" font-size="17px"><text x="827.5" y="132">mamh</text></g><path d="M 790 140 M 970 140 M 970 170 M 790 170" fill="none" stroke="#457b9d" stroke-miterlimit="10" pointer-events="none"/><path d="M 790 140 M 820 140 M 820 170 M 790 170" fill="none" stroke="#457b9d" stroke-miterlimit="10" pointer-events="none"/><path d="M 820 140 M 970 140 M 970 170 M 820 170" fill="none" stroke="#457b9d" stroke-miterlimit="10" pointer-events="none"/><g fill="#1D3557" font-family="Helvetica" font-weight="bold" pointer-events="none" clip-path="url(#mx-clip-826-140-144-30-0)" font-size="17px"><text x="827.5" y="162">hocky</text></g><path d="M 790 170 M 970 170 M 970 200 M 790 200" fill="none" stroke="#457b9d" stroke-miterlimit="10" pointer-events="none"/><path d="M 790 170 M 820 170 M 820 200 M 790 200" fill="none" stroke="#457b9d" stroke-miterlimit="10" pointer-events="none"/><path d="M 820 170 M 970 170 M 970 200 M 820 200" fill="none" stroke="#457b9d" stroke-miterlimit="10" pointer-events="none"/><g fill="#1D3557" font-family="Helvetica" font-weight="bold" pointer-events="none" clip-path="url(#mx-clip-826-170-144-30-0)" font-size="17px"><text x="827.5" y="192">nam</text></g><path d="M 790 200 M 970 200 M 970 230 M 790 230" fill="none" stroke="#457b9d" stroke-miterlimit="10" pointer-events="none"/><path d="M 790 200 M 820 200 M 820 230 M 790 230" fill="none" stroke="#457b9d" stroke-miterlimit="10" pointer-events="none"/><path d="M 820 200 M 970 200 M 970 230 M 820 230" fill="none" stroke="#457b9d" stroke-miterlimit="10" pointer-events="none"/><g fill="#1D3557" font-family="Helvetica" font-weight="bold" pointer-events="none" clip-path="url(#mx-clip-826-200-144-30-0)" font-size="17px"><text x="827.5" y="222">gv</text></g><path d="M 110 360 L 110 330 L 300 330 L 300 360" fill="#a8dadc" stroke="#457b9d" stroke-miterlimit="10" pointer-events="none"/><path d="M 110 360 L 110 420 L 300 420 L 300 360" fill="none" stroke="#457b9d" stroke-miterlimit="10" pointer-events="none"/><path d="M 110 360 L 300 360" fill="none" stroke="#457b9d" stroke-miterlimit="10" pointer-events="none"/><path d="M 170 360 L 170 420" fill="none" stroke="#457b9d" stroke-miterlimit="10" pointer-events="none"/><g fill="#1D3557" font-family="Helvetica" font-weight="bold" pointer-events="none" text-anchor="middle" font-size="17px"><text x="204.5" y="352">DKIEN</text></g><path d="M 110 360 M 300 360 M 300 390 M 110 390" fill="none" stroke="#457b9d" stroke-miterlimit="10" pointer-events="none"/><path d="M 110 360 M 170 360 M 170 390 M 110 390" fill="none" stroke="#457b9d" stroke-miterlimit="10" pointer-events="none"/><g fill="#1D3557" font-family="Helvetica" font-weight="bold" pointer-events="none" clip-path="url(#mx-clip-110-360-60-30-0)" text-anchor="middle" font-size="17px"><text x="139.5" y="382">PK,FK1</text></g><path d="M 170 360 M 300 360 M 300 390 M 170 390" fill="none" stroke="#457b9d" stroke-miterlimit="10" pointer-events="none"/><g fill="#1D3557" font-family="Helvetica" font-weight="bold" text-decoration="underline" pointer-events="none" clip-path="url(#mx-clip-176-360-124-30-0)" font-size="17px"><text x="177.5" y="382">mamh</text></g><path d="M 110 390 M 300 390 M 300 420 L 110 420" fill="none" stroke="#457b9d" stroke-miterlimit="10" pointer-events="none"/><path d="M 110 390 M 170 390 M 170 420 M 110 420" fill="none" stroke="#457b9d" stroke-miterlimit="10" pointer-events="none"/><g fill="#1D3557" font-family="Helvetica" font-weight="bold" pointer-events="none" clip-path="url(#mx-clip-110-390-60-30-0)" text-anchor="middle" font-size="17px"><text x="139.5" y="412">PK,FK2</text></g><path d="M 170 390 M 300 390 M 300 420 M 170 420" fill="none" stroke="#457b9d" stroke-miterlimit="10" pointer-events="none"/><g fill="#1D3557" font-family="Helvetica" font-weight="bold" text-decoration="underline" pointer-events="none" clip-path="url(#mx-clip-176-390-124-30-0)" font-size="17px"><text x="177.5" y="412">mamh_truoc</text></g><path d="M 230 65 L 250 65 Q 260 65 270 65 L 380 65 Q 390 65 400 65 L 420 65" fill="none" stroke="#457b9d" stroke-miterlimit="10" pointer-events="none"/><path d="M 236 59 L 236 71 M 242 59 L 242 71" fill="none" stroke="#457b9d" stroke-miterlimit="10" pointer-events="none"/><ellipse cx="402" cy="65" rx="5" ry="5" fill="#ffffff" stroke="#457b9d" pointer-events="none"/><path d="M 420 59 L 408 65 L 420 71" fill="none" stroke="#457b9d" stroke-miterlimit="10" pointer-events="none"/><path d="M 790 95 L 770 95 Q 760 95 750 95 L 640 95 Q 630 95 620 95 L 600 95" fill="none" stroke="#457b9d" stroke-miterlimit="10" pointer-events="none"/><path d="M 784 101 L 784 89 M 778 101 L 778 89" fill="none" stroke="#457b9d" stroke-miterlimit="10" pointer-events="none"/><ellipse cx="618" cy="95" rx="5" ry="5" fill="#ffffff" stroke="#457b9d" pointer-events="none"/><path d="M 600 101 L 612 95 L 600 89" fill="none" stroke="#457b9d" stroke-miterlimit="10" pointer-events="none"/><path d="M 550 375 L 530 375 Q 520 375 510 375 L 340 375 Q 330 375 320 375 L 300 375" fill="none" stroke="#457b9d" stroke-miterlimit="10" pointer-events="none"/><path d="M 544 381 L 544 369 M 538 381 L 538 369" fill="none" stroke="#457b9d" stroke-miterlimit="10" pointer-events="none"/><ellipse cx="318" cy="375" rx="5" ry="5" fill="#ffffff" stroke="#457b9d" pointer-events="none"/><path d="M 300 381 L 312 375 L 300 369" fill="none" stroke="#457b9d" stroke-miterlimit="10" pointer-events="none"/><path d="M 730 375 L 750 375 Q 760 375 760 365 L 760 260 Q 760 250 760 240 L 760 135 Q 760 125 770 125 L 790 125" fill="none" stroke="#457b9d" stroke-miterlimit="10" pointer-events="none"/><path d="M 736 369 L 736 381 M 742 369 L 742 381" fill="none" stroke="#457b9d" stroke-miterlimit="10" pointer-events="none"/><ellipse cx="772" cy="125" rx="5" ry="5" fill="#ffffff" stroke="#457b9d" pointer-events="none"/><path d="M 790 119 L 778 125 L 790 131" fill="none" stroke="#457b9d" stroke-miterlimit="10" pointer-events="none"/></g></svg>