<?xml version="1.0" encoding="UTF-8"?>
<!DOCTYPE svg PUBLIC "-//W3C//DTD SVG 1.1//EN" "http://www.w3.org/Graphics/SVG/1.1/DTD/svg11.dtd">
<svg xmlns="http://www.w3.org/2000/svg" style="background-color: rgb(241, 250, 238);" xmlns:xlink="http://www.w3.org/1999/xlink" version="1.1" width="1400px" height="850px" viewBox="-0.5 -0.5 1400 850"><defs><clipPath id="mx-clip-170-260-30-30-0"><rect x="170" y="260" width="30" height="30"/></clipPath><clipPath id="mx-clip-206-260-144-30-0"><rect x="206" y="260" width="144" height="30"/></clipPath><clipPath id="mx-clip-206-290-144-30-0"><rect x="206" y="290" width="144" height="30"/></clipPath><clipPath id="mx-clip-206-320-144-30-0"><rect x="206" y="320" width="144" height="30"/></clipPath><clipPath id="mx-clip-206-350-144-30-0"><rect x="206" y="350" width="144" height="30"/></clipPath><clipPath id="mx-clip-520-260-30-30-0"><rect x="520" y="260" width="30" height="30"/></clipPath><clipPath id="mx-clip-556-260-144-30-0"><rect x="556" y="260" width="144" height="30"/></clipPath><clipPath id="mx-clip-556-290-144-30-0"><rect x="556" y="290" width="144" height="30"/></clipPath><clipPath id="mx-clip-556-320-144-30-0"><rect x="556" y="320" width="144" height="30"/></clipPath><clipPath id="mx-clip-556-350-144-30-0"><rect x="556" y="350" width="144" height="30"/></clipPath><clipPath id="mx-clip-556-380-144-30-0"><rect x="556" y="380" width="144" height="30"/></clipPath><clipPath id="mx-clip-556-410-144-30-0"><rect x="556" y="410" width="144" height="30"/></clipPath><clipPath id="mx-clip-556-440-144-30-0"><rect x="556" y="440" width="144" height="30"/></clipPath><clipPath id="mx-clip-556-470-144-30-0"><rect x="556" y="470" width="144" height="30"/></clipPath><clipPath id="mx-clip-556-500-144-30-0"><rect x="556" y="500" width="144" height="30"/></clipPath><clipPath id="mx-clip-520-530-30-30-0"><rect x="520" y="530" width="30" height="30"/></clipPath><clipPath id="mx-clip-556-530-144-30-0"><rect x="556" y="530" width="144" height="30"/></clipPath><clipPath id="mx-clip-170-480-60-30-0"><rect x="170" y="480" width="60" height="30"/></clipPath><clipPath id="mx-clip-236-480-114-30-0"><rect x="236" y="480" width="114" height="30"/></clipPath><clipPath id="mx-clip-170-510-60-30-0"><rect x="170" y="510" width="60" height="30"/></clipPath><clipPath id="mx-clip-236-510-114-30-0"><rect x="236" y="510" width="114" height="30"/></clipPath><clipPath id="mx-clip-790-260-60-30-0"><rect x="790" y="260" width="60" height="30"/></clipPath><clipPath id="mx-clip-856-260-114-30-0"><rect x="856" y="260" width="114" height="30"/></clipPath><clipPath id="mx-clip-790-290-60-30-0"><rect x="790" y="290" width="60" height="30"/></clipPath><clipPath id="mx-clip-856-290-114-30-0"><rect x="856" y="290" width="114" height="30"/></clipPath><clipPath id="mx-clip-856-320-114-30-0"><rect x="856" y="320" width="114" height="30"/></clipPath><clipPath id="mx-clip-856-350-114-30-0"><rect x="856" y="350" width="114" height="30"/></clipPath><clipPath id="mx-clip-856-380-114-30-0"><rect x="856" y="380" width="114" height="30"/></clipPath><clipPath id="mx-clip-170-60-30-30-0"><rect x="170" y="60" width="30" height="30"/></clipPath><clipPath id="mx-clip-206-60-144-30-0"><rect x="206" y="60" width="144" height="30"/></clipPath><clipPath id="mx-clip-206-90-144-30-0"><rect x="206" y="90" width="144" height="30"/></clipPath><clipPath id="mx-clip-206-120-144-30-0"><rect x="206" y="120" width="144" height="30"/></clipPath><clipPath id="mx-clip-170-150-30-30-0"><rect x="170" y="150" width="30" height="30"/></clipPath><clipPath id="mx-clip-206-150-144-30-0"><rect x="206" y="150" width="144" height="30"/></clipPath><clipPath id="mx-clip-520-60-60-30-0"><rect x="520" y="60" width="60" height="30"/></clipPath><clipPath id="mx-clip-586-60-114-30-0"><rect x="586" y="60" width="114" height="30"/></clipPath><clipPath id="mx-clip-520-90-60-30-0"><rect x="520" y="90" width="60" height="30"/></clipPath><clipPath id="mx-clip-586-90-114-30-0"><rect x="586" y="90" width="114" height="30"/></clipPath><clipPath id="mx-clip-586-120-114-30-0"><rect x="586" y="120" width="114" height="30"/></clipPath></defs><g><path d="M 170 260 L 170 230 L 350 230 L 350 260" fill="#a8dadc" stroke="#457b9d" stroke-miterlimit="10" pointer-events="all"/><path d="M 170 260 L 170 390 L 350 390 L 350 260" fill="none" stroke="#457b9d" stroke-miterlimit="10" pointer-events="none"/><path d="M 170 260 L 350 260" fill="none" stroke="#457b9d" stroke-miterlimit="10" pointer-events="none"/><path d="M 200 260 L 200 390" fill="none" stroke="#457b9d" stroke-miterlimit="10" pointer-events="none"/><g fill="#1D3557" font-family="Helvetica" font-weight="bold" pointer-events="none" text-anchor="middle" font-size="15px"><text x="259.5" y="251">phongban</text></g><path d="M 170 260 M 350 260 M 350 290 L 170 290" fill="none" stroke="#457b9d" stroke-miterlimit="10" pointer-events="none"/><path d="M 170 260 M 200 260 M 200 290 M 170 290" fill="none" stroke="#457b9d" stroke-miterlimit="10" pointer-events="none"/><g fill="#1D3557" font-family="Helvetica" font-weight="bold" pointer-events="none" clip-path="url(#mx-clip-170-260-30-30-0)" text-anchor="middle" font-size="15px"><text x="184.5" y="281">PK</text></g><path d="M 200 260 M 350 260 M 350 290 M 200 290" fill="none" stroke="#457b9d" stroke-miterlimit="10" pointer-events="none"/><g fill="#1D3557" font-family="Helvetica" font-weight="bold" text-decoration="underline" pointer-events="none" clip-path="url(#mx-clip-206-260-144-30-0)" font-size="15px"><text x="207.5" y="281">maphg</text></g><path d="M 170 290 M 350 290 M 350 320 M 170 320" fill="none" stroke="#457b9d" stroke-miterlimit="10" pointer-events="none"/><path d="M 170 290 M 200 290 M 200 320 M 170 320" fill="none" stroke="#457b9d" stroke-miterlimit="10" pointer-events="none"/><path d="M 200 290 M 350 290 M 350 320 M 200 320" fill="none" stroke="#457b9d" stroke-miterlimit="10" pointer-events="none"/><g fill="#1D3557" font-family="Helvetica" font-weight="bold" pointer-events="none" clip-path="url(#mx-clip-206-290-144-30-0)" font-size="15px"><text x="207.5" y="311">tenphg</text></g><path d="M 170 320 M 350 320 M 350 350 M 170 350" fill="none" stroke="#457b9d" stroke-miterlimit="10" pointer-events="none"/><path d="M 170 320 M 200 320 M 200 350 M 170 350" fill="none" stroke="#457b9d" stroke-miterlimit="10" pointer-events="none"/><path d="M 200 320 M 350 320 M 350 350 M 200 350" fill="none" stroke="#457b9d" stroke-miterlimit="10" pointer-events="none"/><g fill="#1D3557" font-family="Helvetica" font-weight="bold" pointer-events="none" clip-path="url(#mx-clip-206-320-144-30-0)" font-size="15px"><text x="207.5" y="341">trphg</text></g><path d="M 170 350 M 350 350 M 350 380 M 170 380" fill="none" stroke="#457b9d" stroke-miterlimit="10" pointer-events="none"/><path d="M 170 350 M 200 350 M 200 380 M 170 380" fill="none" stroke="#457b9d" stroke-miterlimit="10" pointer-events="none"/><path d="M 200 350 M 350 350 M 350 380 M 200 380" fill="none" stroke="#457b9d" stroke-miterlimit="10" pointer-events="none"/><g fill="#1D3557" font-family="Helvetica" font-weight="bold" pointer-events="none" clip-path="url(#mx-clip-206-350-144-30-0)" font-size="15px"><text x="207.5" y="371">ng_nhanchuc</text></g><path d="M 520 260 L 520 230 L 700 230 L 700 260" fill="#a8dadc" stroke="#457b9d" stroke-miterlimit="10" pointer-events="none"/><path d="M 520 260 L 520 570 L 700 570 L 700 260" fill="none" stroke="#457b9d" stroke-miterlimit="10" pointer-events="none"/><path d="M 520 260 L 700 260" fill="none" stroke="#457b9d" stroke-miterlimit="10" pointer-events="none"/><path d="M 550 260 L 550 570" fill="none" stroke="#457b9d" stroke-miterlimit="10" pointer-events="none"/><g fill="#1D3557" font-family="Helvetica" font-weight="bold" pointer-events="none" text-anchor="middle" font-size="15px"><text x="609.5" y="251">nhanvien</text></g><path d="M 520 260 M 700 260 M 700 290 L 520 290" fill="none" stroke="#457b9d" stroke-miterlimit="10" pointer-events="none"/><path d="M 520 260 M 550 260 M 550 290 M 520 290" fill="none" stroke="#457b9d" stroke-miterlimit="10" pointer-events="none"/><g fill="#1D3557" font-family="Helvetica" font-weight="bold" pointer-events="none" clip-path="url(#mx-clip-520-260-30-30-0)" text-anchor="middle" font-size="15px"><text x="534.5" y="281">PK</text></g><path d="M 550 260 M 700 260 M 700 290 M 550 290" fill="none" stroke="#457b9d" stroke-miterlimit="10" pointer-events="none"/><g fill="#1D3557" font-family="Helvetica" font-weight="bold" text-decoration="underline" pointer-events="none" clip-path="url(#mx-clip-556-260-144-30-0)" font-size="15px"><text x="557.5" y="281">manv</text></g><path d="M 520 290 M 700 290 M 700 320 M 520 320" fill="none" stroke="#457b9d" stroke-miterlimit="10" pointer-events="none"/><path d="M 520 290 M 550 290 M 550 320 M 520 320" fill="none" stroke="#457b9d" stroke-miterlimit="10" pointer-events="none"/><path d="M 550 290 M 700 290 M 700 320 M 550 320" fill="none" stroke="#457b9d" stroke-miterlimit="10" pointer-events="none"/><g fill="#1D3557" font-family="Helvetica" font-weight="bold" pointer-events="none" clip-path="url(#mx-clip-556-290-144-30-0)" font-size="15px"><text x="557.5" y="311">honv</text></g><path d="M 520 320 M 700 320 M 700 350 M 520 350" fill="none" stroke="#457b9d" stroke-miterlimit="10" pointer-events="none"/><path d="M 520 320 M 550 320 M 550 350 M 520 350" fill="none" stroke="#457b9d" stroke-miterlimit="10" pointer-events="none"/><path d="M 550 320 M 700 320 M 700 350 M 550 350" fill="none" stroke="#457b9d" stroke-miterlimit="10" pointer-events="none"/><g fill="#1D3557" font-family="Helvetica" font-weight="bold" pointer-events="none" clip-path="url(#mx-clip-556-320-144-30-0)" font-size="15px"><text x="557.5" y="341">tenlot</text></g><path d="M 520 350 M 700 350 M 700 380 M 520 380" fill="none" stroke="#457b9d" stroke-miterlimit="10" pointer-events="none"/><path d="M 520 350 M 550 350 M 550 380 M 520 380" fill="none" stroke="#457b9d" stroke-miterlimit="10" pointer-events="none"/><path d="M 550 350 M 700 350 M 700 380 M 550 380" fill="none" stroke="#457b9d" stroke-miterlimit="10" pointer-events="none"/><g fill="#1D3557" font-family="Helvetica" font-weight="bold" pointer-events="none" clip-path="url(#mx-clip-556-350-144-30-0)" font-size="15px"><text x="557.5" y="371">tennv</text></g><path d="M 520 380 M 700 380 M 700 410 M 520 410" fill="none" stroke="#457b9d" stroke-miterlimit="10" pointer-events="none"/><path d="M 520 380 M 550 380 M 550 410 M 520 410" fill="none" stroke="#457b9d" stroke-miterlimit="10" pointer-events="none"/><path d="M 550 380 M 700 380 M 700 410 M 550 410" fill="none" stroke="#457b9d" stroke-miterlimit="10" pointer-events="none"/><g fill="#1D3557" font-family="Helvetica" font-weight="bold" pointer-events="none" clip-path="url(#mx-clip-556-380-144-30-0)" font-size="15px"><text x="557.5" y="401">ngsinh</text></g><path d="M 520 410 M 700 410 M 700 440 M 520 440" fill="none" stroke="#457b9d" stroke-miterlimit="10" pointer-events="none"/><path d="M 520 410 M 550 410 M 550 440 M 520 440" fill="none" stroke="#457b9d" stroke-miterlimit="10" pointer-events="none"/><path d="M 550 410 M 700 410 M 700 440 M 550 440" fill="none" stroke="#457b9d" stroke-miterlimit="10" pointer-events="none"/><g fill="#1D3557" font-family="Helvetica" font-weight="bold" pointer-events="none" clip-path="url(#mx-clip-556-410-144-30-0)" font-size="15px"><text x="557.5" y="431">dchi</text></g><path d="M 520 440 M 700 440 M 700 470 M 520 470" fill="none" stroke="#457b9d" stroke-miterlimit="10" pointer-events="none"/><path d="M 520 440 M 550 440 M 550 470 M 520 470" fill="none" stroke="#457b9d" stroke-miterlimit="10" pointer-events="none"/><path d="M 550 440 M 700 440 M 700 470 M 550 470" fill="none" stroke="#457b9d" stroke-miterlimit="10" pointer-events="none"/><g fill="#1D3557" font-family="Helvetica" font-weight="bold" pointer-events="none" clip-path="url(#mx-clip-556-440-144-30-0)" font-size="15px"><text x="557.5" y="461">phai</text></g><path d="M 520 470 M 700 470 M 700 500 M 520 500" fill="none" stroke="#457b9d" stroke-miterlimit="10" pointer-events="none"/><path d="M 520 470 M 550 470 M 550 500 M 520 500" fill="none" stroke="#457b9d" stroke-miterlimit="10" pointer-events="none"/><path d="M 550 470 M 700 470 M 700 500 M 550 500" fill="none" stroke="#457b9d" stroke-miterlimit="10" pointer-events="none"/><g fill="#1D3557" font-family="Helvetica" font-weight="bold" pointer-events="none" clip-path="url(#mx-clip-556-470-144-30-0)" font-size="15px"><text x="557.5" y="491">luong</text></g><path d="M 520 500 M 700 500 M 700 530 M 520 530" fill="none" stroke="#457b9d" stroke-miterlimit="10" pointer-events="none"/><path d="M 520 500 M 550 500 M 550 530 M 520 530" fill="none" stroke="#457b9d" stroke-miterlimit="10" pointer-events="none"/><path d="M 550 500 M 700 500 M 700 530 M 550 530" fill="none" stroke="#457b9d" stroke-miterlimit="10" pointer-events="none"/><g fill="#1D3557" font-family="Helvetica" pointer-events="none" clip-path="url(#mx-clip-556-500-144-30-0)" font-size="15px"><text x="557.5" y="521">ma_nql</text></g><path d="M 520 530 M 700 530 M 700 560 M 520 560" fill="none" stroke="#457b9d" stroke-miterlimit="10" pointer-events="none"/><path d="M 520 530 M 550 530 M 550 560 M 520 560" fill="none" stroke="#457b9d" stroke-miterlimit="10" pointer-events="none"/><g fill="#1D3557" font-family="Helvetica" font-weight="bold" pointer-events="none" clip-path="url(#mx-clip-520-530-30-30-0)" text-anchor="middle" font-size="15px"><text x="534.5" y="551">FK</text></g><path d="M 550 530 M 700 530 M 700 560 M 550 560" fill="none" stroke="#457b9d" stroke-miterlimit="10" pointer-events="none"/><g fill="#1D3557" font-family="Helvetica" font-weight="bold" pointer-events="none" clip-path="url(#mx-clip-556-530-144-30-0)" font-size="15px"><text x="557.5" y="551">phg</text></g><path d="M 170 480 L 170 450 L 350 450 L 350 480" fill="#a8dadc" stroke="#457b9d" stroke-miterlimit="10" pointer-events="none"/><path d="M 170 480 L 170 540 L 350 540 L 350 480" fill="none" stroke="#457b9d" stroke-miterlimit="10" pointer-events="none"/><path d="M 170 480 L 350 480" fill="none" stroke="#457b9d" stroke-miterlimit="10" pointer-events="none"/><path d="M 230 480 L 230 540" fill="none" stroke="#457b9d" stroke-miterlimit="10" pointer-events="none"/><g fill="#1D3557" font-family="Helvetica" font-weight="bold" pointer-events="none" text-anchor="middle" font-size="15px"><text x="259.5" y="471">diadiem_phg</text></g><path d="M 170 480 M 350 480 M 350 510 M 170 510" fill="none" stroke="#457b9d" stroke-miterlimit="10" pointer-events="none"/><path d="M 170 480 M 230 480 M 230 510 M 170 510" fill="none" stroke="#457b9d" stroke-miterlimit="10" pointer-events="none"/><g fill="#1D3557" font-family="Helvetica" font-weight="bold" pointer-events="none" clip-path="url(#mx-clip-170-480-60-30-0)" text-anchor="middle" font-size="15px"><text x="199.5" y="501">PK,FK1</text></g><path d="M 230 480 M 350 480 M 350 510 M 230 510" fill="none" stroke="#457b9d" stroke-miterlimit="10" pointer-events="none"/><g fill="#1D3557" font-family="Helvetica" font-weight="bold" text-decoration="underline" pointer-events="none" clip-path="url(#mx-clip-236-480-114-30-0)" font-size="15px"><text x="237.5" y="501">maphg</text></g><path d="M 170 510 M 350 510 M 350 540 L 170 540" fill="none" stroke="#457b9d" stroke-miterlimit="10" pointer-events="none"/><path d="M 170 510 M 230 510 M 230 540 M 170 540" fill="none" stroke="#457b9d" stroke-miterlimit="10" pointer-events="none"/><g fill="#1D3557" font-family="Helvetica" font-weight="bold" pointer-events="none" clip-path="url(#mx-clip-170-510-60-30-0)" text-anchor="middle" font-size="15px"><text x="199.5" y="531">PK</text></g><path d="M 230 510 M 350 510 M 350 540 M 230 540" fill="none" stroke="#457b9d" stroke-miterlimit="10" pointer-events="none"/><g fill="#1D3557" font-family="Helvetica" font-weight="bold" text-decoration="underline" pointer-events="none" clip-path="url(#mx-clip-236-510-114-30-0)" font-size="15px"><text x="237.5" y="531">diadiem</text></g><path d="M 790 260 L 790 230 L 970 230 L 970 260" fill="#a8dadc" stroke="#457b9d" stroke-miterlimit="10" pointer-events="none"/><path d="M 790 260 L 790 420 L 970 420 L 970 260" fill="none" stroke="#457b9d" stroke-miterlimit="10" pointer-events="none"/><path d="M 790 260 L 970 260" fill="none" stroke="#457b9d" stroke-miterlimit="10" pointer-events="none"/><path d="M 850 260 L 850 420" fill="none" stroke="#457b9d" stroke-miterlimit="10" pointer-events="none"/><g fill="#1D3557" font-family="Helvetica" font-weight="bold" pointer-events="none" text-anchor="middle" font-size="15px"><text x="879.5" y="251">thannhan</text></g><path d="M 790 260 M 970 260 M 970 290 M 790 290" fill="none" stroke="#457b9d" stroke-miterlimit="10" pointer-events="none"/><path d="M 790 260 M 850 260 M 850 290 M 790 290" fill="none" stroke="#457b9d" stroke-miterlimit="10" pointer-events="none"/><g fill="#1D3557" font-family="Helvetica" font-weight="bold" pointer-events="none" clip-path="url(#mx-clip-790-260-60-30-0)" text-anchor="middle" font-size="15px"><text x="819.5" y="281">PK,FK1</text></g><path d="M 850 260 M 970 260 M 970 290 M 850 290" fill="none" stroke="#457b9d" stroke-miterlimit="10" pointer-events="none"/><g fill="#1D3557" font-family="Helvetica" font-weight="bold" text-decoration="underline" pointer-events="none" clip-path="url(#mx-clip-856-260-114-30-0)" font-size="15px"><text x="857.5" y="281">ma_nvien</text></g><path d="M 790 290 M 970 290 M 970 320 L 790 320" fill="none" stroke="#457b9d" stroke-miterlimit="10" pointer-events="none"/><path d="M 790 290 M 850 290 M 850 320 M 790 320" fill="none" stroke="#457b9d" stroke-miterlimit="10" pointer-events="none"/><g fill="#1D3557" font-family="Helvetica" font-weight="bold" pointer-events="none" clip-path="url(#mx-clip-790-290-60-30-0)" text-anchor="middle" font-size="15px"><text x="819.5" y="311">PK</text></g><path d="M 850 290 M 970 290 M 970 320 M 850 320" fill="none" stroke="#457b9d" stroke-miterlimit="10" pointer-events="none"/><g fill="#1D3557" font-family="Helvetica" font-weight="bold" text-decoration="underline" pointer-events="none" clip-path="url(#mx-clip-856-290-114-30-0)" font-size="15px"><text x="857.5" y="311">tentn</text></g><path d="M 790 320 M 970 320 M 970 350 M 790 350" fill="none" stroke="#457b9d" stroke-miterlimit="10" pointer-events="none"/><path d="M 790 320 M 850 320 M 850 350 M 790 350" fill="none" stroke="#457b9d" stroke-miterlimit="10" pointer-events="none"/><path d="M 850 320 M 970 320 M 970 350 M 850 350" fill="none" stroke="#457b9d" stroke-miterlimit="10" pointer-events="none"/><g fill="#1D3557" font-family="Helvetica" font-weight="bold" pointer-events="none" clip-path="url(#mx-clip-856-320-114-30-0)" font-size="15px"><text x="857.5" y="341">phai</text></g><path d="M 790 350 M 970 350 M 970 380 M 790 380" fill="none" stroke="#457b9d" stroke-miterlimit="10" pointer-events="none"/><path d="M 790 350 M 850 350 M 850 380 M 790 380" fill="none" stroke="#457b9d" stroke-miterlimit="10" pointer-events="none"/><path d="M 850 350 M 970 350 M 970 380 M 850 380" fill="none" stroke="#457b9d" stroke-miterlimit="10" pointer-events="none"/><g fill="#1D3557" font-family="Helvetica" font-weight="bold" pointer-events="none" clip-path="url(#mx-clip-856-350-114-30-0)" font-size="15px"><text x="857.5" y="371">ngsinh</text></g><path d="M 790 380 M 970 380 M 970 410 M 790 410" fill="none" stroke="#457b9d" stroke-miterlimit="10" pointer-events="none"/><path d="M 790 380 M 850 380 M 850 410 M 790 410" fill="none" stroke="#457b9d" stroke-miterlimit="10" pointer-events="none"/><path d="M 850 380 M 970 380 M 970 410 M 850 410" fill="none" stroke="#457b9d" stroke-miterlimit="10" pointer-events="none"/><g fill="#1D3557" font-family="Helvetica" font-weight="bold" pointer-events="none" clip-path="url(#mx-clip-856-380-114-30-0)" font-size="15px"><text x="857.5" y="401">quanhe</text></g><path d="M 170 60 L 170 30 L 350 30 L 350 60" fill="#a8dadc" stroke="#457b9d" stroke-miterlimit="10" pointer-events="none"/><path d="M 170 60 L 170 190 L 350 190 L 350 60" fill="none" stroke="#457b9d" stroke-miterlimit="10" pointer-events="none"/><path d="M 170 60 L 350 60" fill="none" stroke="#457b9d" stroke-miterlimit="10" pointer-events="none"/><path d="M 200 60 L 200 190" fill="none" stroke="#457b9d" stroke-miterlimit="10" pointer-events="none"/><g fill="#1D3557" font-family="Helvetica" font-weight="bold" pointer-events="none" text-anchor="middle" font-size="15px"><text x="259.5" y="51">dean</text></g><path d="M 170 60 M 350 60 M 350 90 L 170 90" fill="none" stroke="#457b9d" stroke-miterlimit="10" pointer-events="none"/><path d="M 170 60 M 200 60 M 200 90 M 170 90" fill="none" stroke="#457b9d" stroke-miterlimit="10" pointer-events="none"/><g fill="#1D3557" font-family="Helvetica" font-weight="bold" pointer-events="none" clip-path="url(#mx-clip-170-60-30-30-0)" text-anchor="middle" font-size="15px"><text x="184.5" y="81">PK</text></g><path d="M 200 60 M 350 60 M 350 90 M 200 90" fill="none" stroke="#457b9d" stroke-miterlimit="10" pointer-events="none"/><g fill="#1D3557" font-family="Helvetica" font-weight="bold" text-decoration="underline" pointer-events="none" clip-path="url(#mx-clip-206-60-144-30-0)" font-size="15px"><text x="207.5" y="81">mada</text></g><path d="M 170 90 M 350 90 M 350 120 M 170 120" fill="none" stroke="#457b9d" stroke-miterlimit="10" pointer-events="none"/><path d="M 170 90 M 200 90 M 200 120 M 170 120" fill="none" stroke="#457b9d" stroke-miterlimit="10" pointer-events="none"/><path d="M 200 90 M 350 90 M 350 120 M 200 120" fill="none" stroke="#457b9d" stroke-miterlimit="10" pointer-events="none"/><g fill="#1D3557" font-family="Helvetica" font-weight="bold" pointer-events="none" clip-path="url(#mx-clip-206-90-144-30-0)" font-size="15px"><text x="207.5" y="111">tenda</text></g><path d="M 170 120 M 350 120 M 350 150 M 170 150" fill="none" stroke="#457b9d" stroke-miterlimit="10" pointer-events="none"/><path d="M 170 120 M 200 120 M 200 150 M 170 150" fill="none" stroke="#457b9d" stroke-miterlimit="10" pointer-events="none"/><path d="M 200 120 M 350 120 M 350 150 M 200 150" fill="none" stroke="#457b9d" stroke-miterlimit="10" pointer-events="none"/><g fill="#1D3557" font-family="Helvetica" font-weight="bold" pointer-events="none" clip-path="url(#mx-clip-206-120-144-30-0)" font-size="15px"><text x="207.5" y="141">ddiem_da</text></g><path d="M 170 150 M 350 150 M 350 180 M 170 180" fill="none" stroke="#457b9d" stroke-miterlimit="10" pointer-events="none"/><path d="M 170 150 M 200 150 M 200 180 M 170 180" fill="none" stroke="#457b9d" stroke-miterlimit="10" pointer-events="none"/><g fill="#1D3557" font-family="Helvetica" font-weight="bold" pointer-events="none" clip-path="url(#mx-clip-170-150-30-30-0)" text-anchor="middle" font-size="15px"><text x="184.5" y="171">FK</text></g><path d="M 200 150 M 350 150 M 350 180 M 200 180" fill="none" stroke="#457b9d" stroke-miterlimit="10" pointer-events="none"/><g fill="#1D3557" font-family="Helvetica" font-weight="bold" pointer-events="none" clip-path="url(#mx-clip-206-150-144-30-0)" font-size="15px"><text x="207.5" y="171">phong</text></g><path d="M 520 60 L 520 30 L 700 30 L 700 60" fill="#a8dadc" stroke="#457b9d" stroke-miterlimit="10" pointer-events="none"/><path d="M 520 60 L 520 160 L 700 160 L 700 60" fill="none" stroke="#457b9d" stroke-miterlimit="10" pointer-events="none"/><path d="M 520 60 L 700 60" fill="none" stroke="#457b9d" stroke-miterlimit="10" pointer-events="none"/><path d="M 580 60 L 580 160" fill="none" stroke="#457b9d" stroke-miterlimit="10" pointer-events="none"/><g fill="#1D3557" font-family="Helvetica" font-weight="bold" pointer-events="none" text-anchor="middle" font-size="15px"><text x="609.5" y="51">phancong</text></g><path d="M 520 60 M 700 60 M 700 90 M 520 90" fill="none" stroke="#457b9d" stroke-miterlimit="10" pointer-events="none"/><path d="M 520 60 M 580 60 M 580 90 M 520 90" fill="none" stroke="#457b9d" stroke-miterlimit="10" pointer-events="none"/><g fill="#1D3557" font-family="Helvetica" font-weight="bold" pointer-events="none" clip-path="url(#mx-clip-520-60-60-30-0)" text-anchor="middle" font-size="15px"><text x="549.5" y="81">PK</text></g><path d="M 580 60 M 700 60 M 700 90 M 580 90" fill="none" stroke="#457b9d" stroke-miterlimit="10" pointer-events="none"/><g fill="#1D3557" font-family="Helvetica" font-weight="bold" text-decoration="underline" pointer-events="none" clip-path="url(#mx-clip-586-60-114-30-0)" font-size="15px"><text x="587.5" y="81">ma_nvien</text></g><path d="M 520 90 M 700 90 M 700 120 L 520 120" fill="none" stroke="#457b9d" stroke-miterlimit="10" pointer-events="none"/><path d="M 520 90 M 580 90 M 580 120 M 520 120" fill="none" stroke="#457b9d" stroke-miterlimit="10" pointer-events="none"/><g fill="#1D3557" font-family="Helvetica" font-weight="bold" pointer-events="none" clip-path="url(#mx-clip-520-90-60-30-0)" text-anchor="middle" font-size="15px"><text x="549.5" y="111">PK,FK1</text></g><path d="M 580 90 M 700 90 M 700 120 M 580 120" fill="none" stroke="#457b9d" stroke-miterlimit="10" pointer-events="none"/><g fill="#1D3557" font-family="Helvetica" font-weight="bold" text-decoration="underline" pointer-events="none" clip-path="url(#mx-clip-586-90-114-30-0)" font-size="15px"><text x="587.5" y="111">soda</text></g><path d="M 520 120 M 700 120 M 700 150 M 520 150" fill="none" stroke="#457b9d" stroke-miterlimit="10" pointer-events="none"/><path d="M 520 120 M 580 120 M 580 150 M 520 150" fill="none" stroke="#457b9d" stroke-miterlimit="10" pointer-events="none"/><path d="M 580 120 M 700 120 M 700 150 M 580 150" fill="none" stroke="#457b9d" stroke-miterlimit="10" pointer-events="none"/><g fill="#1D3557" font-family="Helvetica" pointer-events="none" clip-path="url(#mx-clip-586-120-114-30-0)" font-size="15px"><text x="587.5" y="141">thoigian</text></g><path d="M 350 75 L 370 75 Q 380 75 389.65 77.63 L 480.35 102.37 Q 490 105 500 105 L 520 105" fill="none" stroke="#457b9d" stroke-miterlimit="10" pointer-events="none"/><path d="M 356 69 L 356 81 M 362 69 L 362 81" fill="none" stroke="#457b9d" stroke-miterlimit="10" pointer-events="none"/><ellipse cx="502" cy="105" rx="5" ry="5" fill="#ffffff" stroke="#457b9d" pointer-events="none"/><path d="M 520 99 L 508 105 L 520 111" fill="none" stroke="#457b9d" stroke-miterlimit="10" pointer-events="none"/><path d="M 350 275 L 370 275 Q 380 275 380 265 L 380 175 Q 380 165 370 165 L 350 165" fill="none" stroke="#457b9d" stroke-miterlimit="10" pointer-events="none"/><path d="M 356 269 L 356 281 M 362 269 L 362 281" fill="none" stroke="#457b9d" stroke-miterlimit="10" pointer-events="none"/><ellipse cx="368" cy="165" rx="5" ry="5" fill="#ffffff" stroke="#457b9d" pointer-events="none"/><path d="M 350 171 L 362 165 L 350 159" fill="none" stroke="#457b9d" stroke-miterlimit="10" pointer-events="none"/><path d="M 350 280 L 370 280 Q 380 280 380 290 L 380 485 Q 380 495 370 495 L 350 495" fill="none" stroke="#457b9d" stroke-miterlimit="10" pointer-events="none"/><path d="M 356 274 L 356 286 M 362 274 L 362 286" fill="none" stroke="#457b9d" stroke-miterlimit="10" pointer-events="none"/><ellipse cx="368" cy="495" rx="5" ry="5" fill="#ffffff" stroke="#457b9d" pointer-events="none"/><path d="M 350 501 L 362 495 L 350 489" fill="none" stroke="#457b9d" stroke-miterlimit="10" pointer-events="none"/><path d="M 350 275 L 370 275 Q 380 275 383.77 284.26 L 486.23 535.74 Q 490 545 500 545 L 520 545" fill="none" stroke="#457b9d" stroke-miterlimit="10" pointer-events="none"/><path d="M 356 269 L 356 281 M 362 269 L 362 281" fill="none" stroke="#457b9d" stroke-miterlimit="10" pointer-events="none"/><ellipse cx="502" cy="545" rx="5" ry="5" fill="#ffffff" stroke="#457b9d" pointer-events="none"/><path d="M 520 539 L 508 545 L 520 551" fill="none" stroke="#457b9d" stroke-miterlimit="10" pointer-events="none"/><path d="M 700 275 L 720 275 Q 730 275 740 275 L 750 275 Q 760 275 770 275 L 790 275" fill="none" stroke="#457b9d" stroke-miterlimit="10" pointer-events="none"/><path d="M 706 269 L 706 281 M 712 269 L 712 281" fill="none" stroke="#457b9d" stroke-miterlimit="10" pointer-events="none"/><ellipse cx="772" cy="275" rx="5" ry="5" fill="#ffffff" stroke="#457b9d" pointer-events="none"/><path d="M 790 269 L 778 275 L 790 281" fill="none" stroke="#457b9d" stroke-miterlimit="10" pointer-events="none"/></g></svg>