<?xml version="1.0" encoding="UTF-8"?>
<!DOCTYPE svg PUBLIC "-//W3C//DTD SVG 1.1//EN" "http://www.w3.org/Graphics/SVG/1.1/DTD/svg11.dtd">
<svg xmlns="http://www.w3.org/2000/svg" style="background-color: rgb(241, 250, 238);" xmlns:xlink="http://www.w3.org/1999/xlink" version="1.1" width="1400px" height="850px" viewBox="-0.5 -0.5 1400 850"><defs><clipPath id="mx-clip-30-40-30-30-0"><rect x="30" y="40" width="30" height="30"/></clipPath><clipPath id="mx-clip-66-40-144-30-0"><rect x="66" y="40" width="144" height="30"/></clipPath><clipPath id="mx-clip-66-70-144-30-0"><rect x="66" y="70" width="144" height="30"/></clipPath><clipPath id="mx-clip-66-100-144-30-0"><rect x="66" y="100" width="144" height="30"/></clipPath><clipPath id="mx-clip-66-130-144-30-0"><rect x="66" y="130" width="144" height="30"/></clipPath><clipPath id="mx-clip-66-160-144-30-0"><rect x="66" y="160" width="144" height="30"/></clipPath><clipPath id="mx-clip-66-190-144-30-0"><rect x="66" y="190" width="144" height="30"/></clipPath><clipPath id="mx-clip-310-50-30-30-0"><rect x="310" y="50" width="30" height="30"/></clipPath><clipPath id="mx-clip-346-50-144-30-0"><rect x="346" y="50" width="144" height="30"/></clipPath><clipPath id="mx-clip-346-80-144-30-0"><rect x="346" y="80" width="144" height="30"/></clipPath><clipPath id="mx-clip-310-110-30-30-0"><rect x="310" y="110" width="30" height="30"/></clipPath><clipPath id="mx-clip-346-110-144-30-0"><rect x="346" y="110" width="144" height="30"/></clipPath><clipPath id="mx-clip-310-140-30-30-0"><rect x="310" y="140" width="30" height="30"/></clipPath><clipPath id="mx-clip-346-140-144-30-0"><rect x="346" y="140" width="144" height="30"/></clipPath><clipPath id="mx-clip-346-170-144-30-0"><rect x="346" y="170" width="144" height="30"/></clipPath><clipPath id="mx-clip-346-200-144-30-0"><rect x="346" y="200" width="144" height="30"/></clipPath><clipPath id="mx-clip-346-230-144-30-0"><rect x="346" y="230" width="144" height="30"/></clipPath><clipPath id="mx-clip-346-260-144-30-0"><rect x="346" y="260" width="144" height="30"/></clipPath><clipPath id="mx-clip-570-50-30-30-0"><rect x="570" y="50" width="30" height="30"/></clipPath><clipPath id="mx-clip-606-50-144-30-0"><rect x="606" y="50" width="144" height="30"/></clipPath><clipPath id="mx-clip-606-80-144-30-0"><rect x="606" y="80" width="144" height="30"/></clipPath><clipPath id="mx-clip-570-110-30-30-0"><rect x="570" y="110" width="30" height="30"/></clipPath><clipPath id="mx-clip-606-110-144-30-0"><rect x="606" y="110" width="144" height="30"/></clipPath><clipPath id="mx-clip-570-140-30-30-0"><rect x="570" y="140" width="30" height="30"/></clipPath><clipPath id="mx-clip-606-140-144-30-0"><rect x="606" y="140" width="144" height="30"/></clipPath><clipPath id="mx-clip-606-170-144-30-0"><rect x="606" y="170" width="144" height="30"/></clipPath><clipPath id="mx-clip-606-200-144-30-0"><rect x="606" y="200" width="144" height="30"/></clipPath><clipPath id="mx-clip-606-230-144-30-0"><rect x="606" y="230" width="144" height="30"/></clipPath><clipPath id="mx-clip-840-50-30-30-0"><rect x="840" y="50" width="30" height="30"/></clipPath><clipPath id="mx-clip-876-50-144-30-0"><rect x="876" y="50" width="144" height="30"/></clipPath><clipPath id="mx-clip-876-80-144-30-0"><rect x="876" y="80" width="144" height="30"/></clipPath><clipPath id="mx-clip-876-110-144-30-0"><rect x="876" y="110" width="144" height="30"/></clipPath><clipPath id="mx-clip-876-140-144-30-0"><rect x="876" y="140" width="144" height="30"/></clipPath><clipPath id="mx-clip-840-270-30-30-0"><rect x="840" y="270" width="30" height="30"/></clipPath><clipPath id="mx-clip-876-270-144-30-0"><rect x="876" y="270" width="144" height="30"/></clipPath><clipPath id="mx-clip-876-300-144-30-0"><rect x="876" y="300" width="144" height="30"/></clipPath><clipPath id="mx-clip-876-330-144-30-0"><rect x="876" y="330" width="144" height="30"/></clipPath><clipPath id="mx-clip-876-360-144-30-0"><rect x="876" y="360" width="144" height="30"/></clipPath></defs><g><path d="M 30 40 L 30 10 L 210 10 L 210 40" fill="#a8dadc" stroke="#457b9d" stroke-miterlimit="10" pointer-events="all"/><path d="M 30 40 L 30 230 L 210 230 L 210 40" fill="none" stroke="#457b9d" stroke-miterlimit="10" pointer-events="none"/><path d="M 30 40 L 210 40" fill="none" stroke="#457b9d" stroke-miterlimit="10" pointer-events="none"/><path d="M 60 40 L 60 230" fill="none" stroke="#457b9d" stroke-miterlimit="10" pointer-events="none"/><g fill="#1D3557" font-family="Helvetica" font-weight="bold" pointer-events="none" text-anchor="middle" font-size="17px"><text x="119.5" y="32">HOCVIEN</text></g><path d="M 30 40 M 210 40 M 210 70 L 30 70" fill="none" stroke="#457b9d" stroke-miterlimit="10" pointer-events="none"/><path d="M 30 40 M 60 40 M 60 70 M 30 70" fill="none" stroke="#457b9d" stroke-miterlimit="10" pointer-events="none"/><g fill="#1D3557" font-family="Helvetica" font-weight="bold" pointer-events="none" clip-path="url(#mx-clip-30-40-30-30-0)" text-anchor="middle" font-size="12px"><text x="44.5" y="59.5">PK</text></g><path d="M 60 40 M 210 40 M 210 70 M 60 70" fill="none" stroke="#457b9d" stroke-miterlimit="10" pointer-events="none"/><g fill="#1D3557" font-family="Helvetica" font-weight="bold" text-decoration="underline" pointer-events="none" clip-path="url(#mx-clip-66-40-144-30-0)" font-size="12px"><text x="67.5" y="59.5">mahv</text></g><path d="M 30 70 M 210 70 M 210 100 M 30 100" fill="none" stroke="#457b9d" stroke-miterlimit="10" pointer-events="none"/><path d="M 30 70 M 60 70 M 60 100 M 30 100" fill="none" stroke="#457b9d" stroke-miterlimit="10" pointer-events="none"/><path d="M 60 70 M 210 70 M 210 100 M 60 100" fill="none" stroke="#457b9d" stroke-miterlimit="10" pointer-events="none"/><g fill="#1D3557" font-family="Helvetica" font-weight="bold" pointer-events="none" clip-path="url(#mx-clip-66-70-144-30-0)" font-size="12px"><text x="67.5" y="89.5">ho</text></g><path d="M 30 100 M 210 100 M 210 130 M 30 130" fill="none" stroke="#457b9d" stroke-miterlimit="10" pointer-events="none"/><path d="M 30 100 M 60 100 M 60 130 M 30 130" fill="none" stroke="#457b9d" stroke-miterlimit="10" pointer-events="none"/><path d="M 60 100 M 210 100 M 210 130 M 60 130" fill="none" stroke="#457b9d" stroke-miterlimit="10" pointer-events="none"/><g fill="#1D3557" font-family="Helvetica" font-weight="bold" pointer-events="none" clip-path="url(#mx-clip-66-100-144-30-0)" font-size="12px"><text x="67.5" y="119.5">ten</text></g><path d="M 30 130 M 210 130 M 210 160 M 30 160" fill="none" stroke="#457b9d" stroke-miterlimit="10" pointer-events="none"/><path d="M 30 130 M 60 130 M 60 160 M 30 160" fill="none" stroke="#457b9d" stroke-miterlimit="10" pointer-events="none"/><path d="M 60 130 M 210 130 M 210 160 M 60 160" fill="none" stroke="#457b9d" stroke-miterlimit="10" pointer-events="none"/><g fill="#1D3557" font-family="Helvetica" font-weight="bold" pointer-events="none" clip-path="url(#mx-clip-66-130-144-30-0)" font-size="12px"><text x="67.5" y="149.5">ntns</text></g><path d="M 30 160 M 210 160 M 210 190 M 30 190" fill="none" stroke="#457b9d" stroke-miterlimit="10" pointer-events="none"/><path d="M 30 160 M 60 160 M 60 190 M 30 190" fill="none" stroke="#457b9d" stroke-miterlimit="10" pointer-events="none"/><path d="M 60 160 M 210 160 M 210 190 M 60 190" fill="none" stroke="#457b9d" stroke-miterlimit="10" pointer-events="none"/><g fill="#1D3557" font-family="Helvetica" font-weight="bold" pointer-events="none" clip-path="url(#mx-clip-66-160-144-30-0)" font-size="12px"><text x="67.5" y="179.5">dchi</text></g><path d="M 30 190 M 210 190 M 210 220 M 30 220" fill="none" stroke="#457b9d" stroke-miterlimit="10" pointer-events="none"/><path d="M 30 190 M 60 190 M 60 220 M 30 220" fill="none" stroke="#457b9d" stroke-miterlimit="10" pointer-events="none"/><path d="M 60 190 M 210 190 M 210 220 M 60 220" fill="none" stroke="#457b9d" stroke-miterlimit="10" pointer-events="none"/><g fill="#1D3557" font-family="Helvetica" font-weight="bold" pointer-events="none" clip-path="url(#mx-clip-66-190-144-30-0)" font-size="12px"><text x="67.5" y="209.5">nnghiep</text></g><path d="M 310 50 L 310 20 L 490 20 L 490 50" fill="#a8dadc" stroke="#457b9d" stroke-miterlimit="10" pointer-events="none"/><path d="M 310 50 L 310 300 L 490 300 L 490 50" fill="none" stroke="#457b9d" stroke-miterlimit="10" pointer-events="none"/><path d="M 310 50 L 490 50" fill="none" stroke="#457b9d" stroke-miterlimit="10" pointer-events="none"/><path d="M 340 50 L 340 300" fill="none" stroke="#457b9d" stroke-miterlimit="10" pointer-events="none"/><g fill="#1D3557" font-family="Helvetica" font-weight="bold" pointer-events="none" text-anchor="middle" font-size="17px"><text x="399.5" y="42">BIENLAI</text></g><path d="M 310 50 M 490 50 M 490 80 L 310 80" fill="none" stroke="#457b9d" stroke-miterlimit="10" pointer-events="none"/><path d="M 310 50 M 340 50 M 340 80 M 310 80" fill="none" stroke="#457b9d" stroke-miterlimit="10" pointer-events="none"/><g fill="#1D3557" font-family="Helvetica" font-weight="bold" pointer-events="none" clip-path="url(#mx-clip-310-50-30-30-0)" text-anchor="middle" font-size="12px"><text x="324.5" y="69.5">PK</text></g><path d="M 340 50 M 490 50 M 490 80 M 340 80" fill="none" stroke="#457b9d" stroke-miterlimit="10" pointer-events="none"/><g fill="#1D3557" font-family="Helvetica" font-weight="bold" text-decoration="underline" pointer-events="none" clip-path="url(#mx-clip-346-50-144-30-0)" font-size="12px"><text x="347.5" y="69.5">sobl</text></g><path d="M 310 80 M 490 80 M 490 110 M 310 110" fill="none" stroke="#457b9d" stroke-miterlimit="10" pointer-events="none"/><path d="M 310 80 M 340 80 M 340 110 M 310 110" fill="none" stroke="#457b9d" stroke-miterlimit="10" pointer-events="none"/><path d="M 340 80 M 490 80 M 490 110 M 340 110" fill="none" stroke="#457b9d" stroke-miterlimit="10" pointer-events="none"/><g fill="#1D3557" font-family="Helvetica" font-weight="bold" pointer-events="none" clip-path="url(#mx-clip-346-80-144-30-0)" font-size="12px"><text x="347.5" y="99.5">makh</text></g><path d="M 310 110 M 490 110 M 490 140 M 310 140" fill="none" stroke="#457b9d" stroke-miterlimit="10" pointer-events="none"/><path d="M 310 110 M 340 110 M 340 140 M 310 140" fill="none" stroke="#457b9d" stroke-miterlimit="10" pointer-events="none"/><g fill="#1D3557" font-family="Helvetica" font-weight="bold" pointer-events="none" clip-path="url(#mx-clip-310-110-30-30-0)" text-anchor="middle" font-size="12px"><text x="324.5" y="129.5">FK2</text></g><path d="M 340 110 M 490 110 M 490 140 M 340 140" fill="none" stroke="#457b9d" stroke-miterlimit="10" pointer-events="none"/><g fill="#1D3557" font-family="Helvetica" font-weight="bold" pointer-events="none" clip-path="url(#mx-clip-346-110-144-30-0)" font-size="12px"><text x="347.5" y="129.5">malh</text></g><path d="M 310 140 M 490 140 M 490 170 M 310 170" fill="none" stroke="#457b9d" stroke-miterlimit="10" pointer-events="none"/><path d="M 310 140 M 340 140 M 340 170 M 310 170" fill="none" stroke="#457b9d" stroke-miterlimit="10" pointer-events="none"/><g fill="#1D3557" font-family="Helvetica" font-weight="bold" pointer-events="none" clip-path="url(#mx-clip-310-140-30-30-0)" text-anchor="middle" font-size="12px"><text x="324.5" y="159.5">FK1</text></g><path d="M 340 140 M 490 140 M 490 170 M 340 170" fill="none" stroke="#457b9d" stroke-miterlimit="10" pointer-events="none"/><g fill="#1D3557" font-family="Helvetica" font-weight="bold" pointer-events="none" clip-path="url(#mx-clip-346-140-144-30-0)" font-size="12px"><text x="347.5" y="159.5">mahv</text></g><path d="M 310 170 M 490 170 M 490 200 M 310 200" fill="none" stroke="#457b9d" stroke-miterlimit="10" pointer-events="none"/><path d="M 310 170 M 340 170 M 340 200 M 310 200" fill="none" stroke="#457b9d" stroke-miterlimit="10" pointer-events="none"/><path d="M 340 170 M 490 170 M 490 200 M 340 200" fill="none" stroke="#457b9d" stroke-miterlimit="10" pointer-events="none"/><g fill="#1D3557" font-family="Helvetica" font-weight="bold" pointer-events="none" clip-path="url(#mx-clip-346-170-144-30-0)" font-size="12px"><text x="347.5" y="189.5">diem</text></g><path d="M 310 200 M 490 200 M 490 230 M 310 230" fill="none" stroke="#457b9d" stroke-miterlimit="10" pointer-events="none"/><path d="M 310 200 M 340 200 M 340 230 M 310 230" fill="none" stroke="#457b9d" stroke-miterlimit="10" pointer-events="none"/><path d="M 340 200 M 490 200 M 490 230 M 340 230" fill="none" stroke="#457b9d" stroke-miterlimit="10" pointer-events="none"/><g fill="#1D3557" font-family="Helvetica" font-weight="bold" pointer-events="none" clip-path="url(#mx-clip-346-200-144-30-0)" font-size="12px"><text x="347.5" y="219.5">kqua</text></g><path d="M 310 230 M 490 230 M 490 260 M 310 260" fill="none" stroke="#457b9d" stroke-miterlimit="10" pointer-events="none"/><path d="M 310 230 M 340 230 M 340 260 M 310 260" fill="none" stroke="#457b9d" stroke-miterlimit="10" pointer-events="none"/><path d="M 340 230 M 490 230 M 490 260 M 340 260" fill="none" stroke="#457b9d" stroke-miterlimit="10" pointer-events="none"/><g fill="#1D3557" font-family="Helvetica" font-weight="bold" pointer-events="none" clip-path="url(#mx-clip-346-230-144-30-0)" font-size="12px"><text x="347.5" y="249.5">xeploai</text></g><path d="M 310 260 M 490 260 M 490 290 M 310 290" fill="none" stroke="#457b9d" stroke-miterlimit="10" pointer-events="none"/><path d="M 310 260 M 340 260 M 340 290 M 310 290" fill="none" stroke="#457b9d" stroke-miterlimit="10" pointer-events="none"/><path d="M 340 260 M 490 260 M 490 290 M 340 290" fill="none" stroke="#457b9d" stroke-miterlimit="10" pointer-events="none"/><g fill="#1D3557" font-family="Helvetica" pointer-events="none" clip-path="url(#mx-clip-346-260-144-30-0)" font-size="12px"><text x="347.5" y="279.5">tiennop</text></g><path d="M 570 50 L 570 20 L 750 20 L 750 50" fill="#a8dadc" stroke="#457b9d" stroke-miterlimit="10" pointer-events="none"/><path d="M 570 50 L 570 270 L 750 270 L 750 50" fill="none" stroke="#457b9d" stroke-miterlimit="10" pointer-events="none"/><path d="M 570 50 L 750 50" fill="none" stroke="#457b9d" stroke-miterlimit="10" pointer-events="none"/><path d="M 600 50 L 600 270" fill="none" stroke="#457b9d" stroke-miterlimit="10" pointer-events="none"/><g fill="#1D3557" font-family="Helvetica" font-weight="bold" pointer-events="none" text-anchor="middle" font-size="17px"><text x="659.5" y="42">LOPHOC</text></g><path d="M 570 50 M 750 50 M 750 80 L 570 80" fill="none" stroke="#457b9d" stroke-miterlimit="10" pointer-events="none"/><path d="M 570 50 M 600 50 M 600 80 M 570 80" fill="none" stroke="#457b9d" stroke-miterlimit="10" pointer-events="none"/><g fill="#1D3557" font-family="Helvetica" font-weight="bold" pointer-events="none" clip-path="url(#mx-clip-570-50-30-30-0)" text-anchor="middle" font-size="12px"><text x="584.5" y="69.5">PK</text></g><path d="M 600 50 M 750 50 M 750 80 M 600 80" fill="none" stroke="#457b9d" stroke-miterlimit="10" pointer-events="none"/><g fill="#1D3557" font-family="Helvetica" font-weight="bold" text-decoration="underline" pointer-events="none" clip-path="url(#mx-clip-606-50-144-30-0)" font-size="12px"><text x="607.5" y="69.5">malop</text></g><path d="M 570 80 M 750 80 M 750 110 M 570 110" fill="none" stroke="#457b9d" stroke-miterlimit="10" pointer-events="none"/><path d="M 570 80 M 600 80 M 600 110 M 570 110" fill="none" stroke="#457b9d" stroke-miterlimit="10" pointer-events="none"/><path d="M 600 80 M 750 80 M 750 110 M 600 110" fill="none" stroke="#457b9d" stroke-miterlimit="10" pointer-events="none"/><g fill="#1D3557" font-family="Helvetica" font-weight="bold" pointer-events="none" clip-path="url(#mx-clip-606-80-144-30-0)" font-size="12px"><text x="607.5" y="99.5">tenlop</text></g><path d="M 570 110 M 750 110 M 750 140 M 570 140" fill="none" stroke="#457b9d" stroke-miterlimit="10" pointer-events="none"/><path d="M 570 110 M 600 110 M 600 140 M 570 140" fill="none" stroke="#457b9d" stroke-miterlimit="10" pointer-events="none"/><g fill="#1D3557" font-family="Helvetica" font-weight="bold" pointer-events="none" clip-path="url(#mx-clip-570-110-30-30-0)" text-anchor="middle" font-size="12px"><text x="584.5" y="129.5">FK1</text></g><path d="M 600 110 M 750 110 M 750 140 M 600 140" fill="none" stroke="#457b9d" stroke-miterlimit="10" pointer-events="none"/><g fill="#1D3557" font-family="Helvetica" font-weight="bold" pointer-events="none" clip-path="url(#mx-clip-606-110-144-30-0)" font-size="12px"><text x="607.5" y="129.5">makh</text></g><path d="M 570 140 M 750 140 M 750 170 M 570 170" fill="none" stroke="#457b9d" stroke-miterlimit="10" pointer-events="none"/><path d="M 570 140 M 600 140 M 600 170 M 570 170" fill="none" stroke="#457b9d" stroke-miterlimit="10" pointer-events="none"/><g fill="#1D3557" font-family="Helvetica" font-weight="bold" pointer-events="none" clip-path="url(#mx-clip-570-140-30-30-0)" text-anchor="middle" font-size="12px"><text x="584.5" y="159.5">FK2</text></g><path d="M 600 140 M 750 140 M 750 170 M 600 170" fill="none" stroke="#457b9d" stroke-miterlimit="10" pointer-events="none"/><g fill="#1D3557" font-family="Helvetica" font-weight="bold" pointer-events="none" clip-path="url(#mx-clip-606-140-144-30-0)" font-size="12px"><text x="607.5" y="159.5">magv</text></g><path d="M 570 170 M 750 170 M 750 200 M 570 200" fill="none" stroke="#457b9d" stroke-miterlimit="10" pointer-events="none"/><path d="M 570 170 M 600 170 M 600 200 M 570 200" fill="none" stroke="#457b9d" stroke-miterlimit="10" pointer-events="none"/><path d="M 600 170 M 750 170 M 750 200 M 600 200" fill="none" stroke="#457b9d" stroke-miterlimit="10" pointer-events="none"/><g fill="#1D3557" font-family="Helvetica" font-weight="bold" pointer-events="none" clip-path="url(#mx-clip-606-170-144-30-0)" font-size="12px"><text x="607.5" y="189.5">sisodk</text></g><path d="M 570 200 M 750 200 M 750 230 M 570 230" fill="none" stroke="#457b9d" stroke-miterlimit="10" pointer-events="none"/><path d="M 570 200 M 600 200 M 600 230 M 570 230" fill="none" stroke="#457b9d" stroke-miterlimit="10" pointer-events="none"/><path d="M 600 200 M 750 200 M 750 230 M 600 230" fill="none" stroke="#457b9d" stroke-miterlimit="10" pointer-events="none"/><g fill="#1D3557" font-family="Helvetica" pointer-events="none" clip-path="url(#mx-clip-606-200-144-30-0)" font-size="12px"><text x="607.5" y="219.5">ltrg</text></g><path d="M 570 230 M 750 230 M 750 260 M 570 260" fill="none" stroke="#457b9d" stroke-miterlimit="10" pointer-events="none"/><path d="M 570 230 M 600 230 M 600 260 M 570 260" fill="none" stroke="#457b9d" stroke-miterlimit="10" pointer-events="none"/><path d="M 600 230 M 750 230 M 750 260 M 600 260" fill="none" stroke="#457b9d" stroke-miterlimit="10" pointer-events="none"/><g fill="#1D3557" font-family="Helvetica" font-weight="bold" pointer-events="none" clip-path="url(#mx-clip-606-230-144-30-0)" font-size="12px"><text x="607.5" y="249.5">phhoc</text></g><path d="M 840 50 L 840 20 L 1020 20 L 1020 50" fill="#a8dadc" stroke="#457b9d" stroke-miterlimit="10" pointer-events="none"/><path d="M 840 50 L 840 180 L 1020 180 L 1020 50" fill="none" stroke="#457b9d" stroke-miterlimit="10" pointer-events="none"/><path d="M 840 50 L 1020 50" fill="none" stroke="#457b9d" stroke-miterlimit="10" pointer-events="none"/><path d="M 870 50 L 870 180" fill="none" stroke="#457b9d" stroke-miterlimit="10" pointer-events="none"/><g fill="#1D3557" font-family="Helvetica" font-weight="bold" pointer-events="none" text-anchor="middle" font-size="17px"><text x="929.5" y="42">KHOAHOC</text></g><path d="M 840 50 M 1020 50 M 1020 80 L 840 80" fill="none" stroke="#457b9d" stroke-miterlimit="10" pointer-events="none"/><path d="M 840 50 M 870 50 M 870 80 M 840 80" fill="none" stroke="#457b9d" stroke-miterlimit="10" pointer-events="none"/><g fill="#1D3557" font-family="Helvetica" font-weight="bold" pointer-events="none" clip-path="url(#mx-clip-840-50-30-30-0)" text-anchor="middle" font-size="12px"><text x="854.5" y="69.5">PK</text></g><path d="M 870 50 M 1020 50 M 1020 80 M 870 80" fill="none" stroke="#457b9d" stroke-miterlimit="10" pointer-events="none"/><g fill="#1D3557" font-family="Helvetica" font-weight="bold" text-decoration="underline" pointer-events="none" clip-path="url(#mx-clip-876-50-144-30-0)" font-size="12px"><text x="877.5" y="69.5">makh</text></g><path d="M 840 80 M 1020 80 M 1020 110 M 840 110" fill="none" stroke="#457b9d" stroke-miterlimit="10" pointer-events="none"/><path d="M 840 80 M 870 80 M 870 110 M 840 110" fill="none" stroke="#457b9d" stroke-miterlimit="10" pointer-events="none"/><path d="M 870 80 M 1020 80 M 1020 110 M 870 110" fill="none" stroke="#457b9d" stroke-miterlimit="10" pointer-events="none"/><g fill="#1D3557" font-family="Helvetica" font-weight="bold" pointer-events="none" clip-path="url(#mx-clip-876-80-144-30-0)" font-size="12px"><text x="877.5" y="99.5">tenkh</text></g><path d="M 840 110 M 1020 110 M 1020 140 M 840 140" fill="none" stroke="#457b9d" stroke-miterlimit="10" pointer-events="none"/><path d="M 840 110 M 870 110 M 870 140 M 840 140" fill="none" stroke="#457b9d" stroke-miterlimit="10" pointer-events="none"/><path d="M 870 110 M 1020 110 M 1020 140 M 870 140" fill="none" stroke="#457b9d" stroke-miterlimit="10" pointer-events="none"/><g fill="#1D3557" font-family="Helvetica" font-weight="bold" pointer-events="none" clip-path="url(#mx-clip-876-110-144-30-0)" font-size="12px"><text x="877.5" y="129.5">bd</text></g><path d="M 840 140 M 1020 140 M 1020 170 M 840 170" fill="none" stroke="#457b9d" stroke-miterlimit="10" pointer-events="none"/><path d="M 840 140 M 870 140 M 870 170 M 840 170" fill="none" stroke="#457b9d" stroke-miterlimit="10" pointer-events="none"/><path d="M 870 140 M 1020 140 M 1020 170 M 870 170" fill="none" stroke="#457b9d" stroke-miterlimit="10" pointer-events="none"/><g fill="#1D3557" font-family="Helvetica" font-weight="bold" pointer-events="none" clip-path="url(#mx-clip-876-140-144-30-0)" font-size="12px"><text x="877.5" y="159.5">kt</text></g><path d="M 840 270 L 840 240 L 1020 240 L 1020 270" fill="#a8dadc" stroke="#457b9d" stroke-miterlimit="10" pointer-events="none"/><path d="M 840 270 L 840 400 L 1020 400 L 1020 270" fill="none" stroke="#457b9d" stroke-miterlimit="10" pointer-events="none"/><path d="M 840 270 L 1020 270" fill="none" stroke="#457b9d" stroke-miterlimit="10" pointer-events="none"/><path d="M 870 270 L 870 400" fill="none" stroke="#457b9d" stroke-miterlimit="10" pointer-events="none"/><g fill="#1D3557" font-family="Helvetica" font-weight="bold" pointer-events="none" text-anchor="middle" font-size="17px"><text x="929.5" y="262">GIAOVIEN</text></g><path d="M 840 270 M 1020 270 M 1020 300 L 840 300" fill="none" stroke="#457b9d" stroke-miterlimit="10" pointer-events="none"/><path d="M 840 270 M 870 270 M 870 300 M 840 300" fill="none" stroke="#457b9d" stroke-miterlimit="10" pointer-events="none"/><g fill="#1D3557" font-family="Helvetica" font-weight="bold" pointer-events="none" clip-path="url(#mx-clip-840-270-30-30-0)" text-anchor="middle" font-size="12px"><text x="854.5" y="289.5">PK</text></g><path d="M 870 270 M 1020 270 M 1020 300 M 870 300" fill="none" stroke="#457b9d" stroke-miterlimit="10" pointer-events="none"/><g fill="#1D3557" font-family="Helvetica" font-weight="bold" text-decoration="underline" pointer-events="none" clip-path="url(#mx-clip-876-270-144-30-0)" font-size="12px"><text x="877.5" y="289.5">magv</text></g><path d="M 840 300 M 1020 300 M 1020 330 M 840 330" fill="none" stroke="#457b9d" stroke-miterlimit="10" pointer-events="none"/><path d="M 840 300 M 870 300 M 870 330 M 840 330" fill="none" stroke="#457b9d" stroke-miterlimit="10" pointer-events="none"/><path d="M 870 300 M 1020 300 M 1020 330 M 870 330" fill="none" stroke="#457b9d" stroke-miterlimit="10" pointer-events="none"/><g fill="#1D3557" font-family="Helvetica" font-weight="bold" pointer-events="none" clip-path="url(#mx-clip-876-300-144-30-0)" font-size="12px"><text x="877.5" y="319.5">hoten</text></g><path d="M 840 330 M 1020 330 M 1020 360 M 840 360" fill="none" stroke="#457b9d" stroke-miterlimit="10" pointer-events="none"/><path d="M 840 330 M 870 330 M 870 360 M 840 360" fill="none" stroke="#457b9d" stroke-miterlimit="10" pointer-events="none"/><path d="M 870 330 M 1020 330 M 1020 360 M 870 360" fill="none" stroke="#457b9d" stroke-miterlimit="10" pointer-events="none"/><g fill="#1D3557" font-family="Helvetica" font-weight="bold" pointer-events="none" clip-path="url(#mx-clip-876-330-144-30-0)" font-size="12px"><text x="877.5" y="349.5">ntns</text></g><path d="M 840 360 M 1020 360 M 1020 390 M 840 390" fill="none" stroke="#457b9d" stroke-miterlimit="10" pointer-events="none"/><path d="M 840 360 M 870 360 M 870 390 M 840 390" fill="none" stroke="#457b9d" stroke-miterlimit="10" pointer-events="none"/><path d="M 870 360 M 1020 360 M 1020 390 M 870 390" fill="none" stroke="#457b9d" stroke-miterlimit="10" pointer-events="none"/><g fill="#1D3557" font-family="Helvetica" font-weight="bold" pointer-events="none" clip-path="url(#mx-clip-876-360-144-30-0)" font-size="12px"><text x="877.5" y="379.5">dc</text></g><path d="M 210 55 L 230 55 Q 240 55 243.71 64.28 L 276.29 145.72 Q 280 155 290 155 L 310 155" fill="none" stroke="#457b9d" stroke-miterlimit="10" pointer-events="none"/><path d="M 216 49 L 216 61 M 222 49 L 222 61" fill="none" stroke="#457b9d" stroke-miterlimit="10" pointer-events="none"/><ellipse cx="292" cy="155" rx="5" ry="5" fill="#ffffff" stroke="#457b9d" pointer-events="none"/><path d="M 310 149 L 298 155 L 310 161" fill="none" stroke="#457b9d" stroke-miterlimit="10" pointer-events="none"/><path d="M 570 65 L 550 65 Q 540 65 536.84 74.49 L 523.16 115.51 Q 520 125 510 125 L 490 125" fill="none" stroke="#457b9d" stroke-miterlimit="10" pointer-events="none"/><path d="M 564 71 L 564 59 M 558 71 L 558 59" fill="none" stroke="#457b9d" stroke-miterlimit="10" pointer-events="none"/><ellipse cx="508" cy="125" rx="5" ry="5" fill="#ffffff" stroke="#457b9d" pointer-events="none"/><path d="M 490 131 L 502 125 L 490 119" fill="none" stroke="#457b9d" stroke-miterlimit="10" pointer-events="none"/><path d="M 840 65 L 820 65 Q 810 65 805.53 73.94 L 784.47 116.06 Q 780 125 770 125 L 750 125" fill="none" stroke="#457b9d" stroke-miterlimit="10" pointer-events="none"/><path d="M 834 71 L 834 59 M 828 71 L 828 59" fill="none" stroke="#457b9d" stroke-miterlimit="10" pointer-events="none"/><ellipse cx="768" cy="125" rx="5" ry="5" fill="#ffffff" stroke="#457b9d" pointer-events="none"/><path d="M 750 131 L 762 125 L 750 119" fill="none" stroke="#457b9d" stroke-miterlimit="10" pointer-events="none"/><path d="M 840 285 L 820 285 Q 810 285 807.75 275.26 L 782.25 164.74 Q 780 155 770 155 L 750 155" fill="none" stroke="#457b9d" stroke-miterlimit="10" pointer-events="none"/><path d="M 834 291 L 834 279 M 828 291 L 828 279" fill="none" stroke="#457b9d" stroke-miterlimit="10" pointer-events="none"/><ellipse cx="768" cy="155" rx="5" ry="5" fill="#ffffff" stroke="#457b9d" pointer-events="none"/><path d="M 750 161 L 762 155 L 750 149" fill="none" stroke="#457b9d" stroke-miterlimit="10" pointer-events="none"/></g></svg>